<svg width="367" height="704" viewBox="0 0 367 704" fill="none" xmlns="http://www.w3.org/2000/svg">
<g clip-path="url(#clip0_946_989)">
<path d="M363 105C363 107.7 363 110.3 363 113C359.8 113 356.7 113 353.5 112.9C351.6 112.8 350.9 113.6 350.9 115.5C350.9 127.8 350.9 140.1 350.9 152.4C350.9 153.3 350.9 155.1 351.9 154.7C355.5 153.1 359.6 155.3 362.9 153C362.9 155.7 362.9 158.3 362.9 161C362.2 161 361.5 160.8 360.9 161C343.8 164.1 326.6 165.8 309.2 164.9C304.7 164.7 303.7 166 303.7 170.4C303.8 266.3 303.8 362.3 303.8 458.2C303.8 540.5 303.9 622.8 303.9 705.1C202.9 705.1 101.9 705.1 0.900391 705.1C1.00039 471.8 1.00039 238.7 0.900391 5.4999C0.900391 1.7999 1.70039 0.899902 5.50039 0.899902C105 0.999902 204.5 0.999902 304 0.999902C304 34.5999 304 68.0999 303.8 101.7C303.8 105.2 304.6 106.3 308.2 106.1C318.1 105.6 327.8 103.8 337.7 104C346.2 104.2 354.5 105.8 363 105ZM298.3 344.3C298.3 286.2 298.2 228 298.4 169.9C298.4 165.6 297.3 164 293 164.1C283.3 164.3 273.7 164.1 264 163.9C260.8 163.8 260.9 165 261.7 167.5C263.6 173.7 265.2 180 267.1 186.2C267.8 188.3 267.2 189.8 266.4 191.8C264.3 196.9 260 197.2 255.5 198C247.7 199.3 239.2 197.6 232.6 203.8C231.4 204.9 229.4 205.2 227.8 204.6C225.5 203.7 223.7 204.3 221.6 205.1C218.7 206.2 216.1 206.2 213 204.6C209.5 202.7 205.4 204.3 201.9 205.3C199.8 205.9 200.3 209.3 199.9 211.6C198.7 218.8 197.4 226 196.4 233.3C195 243.2 191.5 253 192.2 262.9C194 287.5 197 311.9 199.4 336.4C200.7 349.6 203.2 362.9 202.9 376.2C202.3 403.6 200.5 431 198.6 458.4C198.1 465.6 199.2 473.1 196.2 480.1C195.4 482.1 197.3 483.5 199.3 483.7C201.1 483.9 203 483.7 204.8 483.4C211.8 482.6 216.5 485.5 218.1 492.2C218.8 495 220.3 496.2 222.9 497.2C246.3 505.4 269.6 513.6 292.9 522.1C296.9 523.5 297.8 523.1 297.8 518.7C297.8 487.7 298 456.8 298.1 425.8C298.3 398.6 298.3 371.5 298.3 344.3ZM6.90039 418.4C7.00039 418.4 7.10039 418.4 7.10039 418.4C7.10039 452 7.10039 485.7 7.10039 519.3C7.10039 522 6.60039 524.9 11.2004 523.5C43.2004 513.5 75.3004 503.5 107.3 493.6C109.6 492.9 110.2 491.5 111.1 489.3C113.1 484.6 111.8 480.2 111.9 475.7C112.1 465.7 113.1 455.8 113.7 445.8C116.4 405.3 117.8 364.7 118.9 324.1C119 321.3 111.9 316.4 110.6 318.4C107.3 323 103.5 320.4 100.4 319.6C95.8004 318.4 90.5004 316.9 88.2004 312.1C87.3004 310.2 86.4004 309.3 84.7004 308.7C73.4004 304.8 62.2004 300.6 50.8004 296.9C47.0004 295.6 45.0004 293.9 46.4004 289.7C47.7004 285.7 50.1004 284.9 54.1004 286.3C65.3004 289.9 76.7004 293.1 88.0004 296.6C90.4004 297.3 91.1004 297.2 91.0004 294.3C90.5004 286.2 90.3004 278.1 90.2004 269.9C90.1004 255.3 87.5004 240.7 89.7004 226.1C89.8004 225.2 89.8004 224.4 88.9004 224C82.6004 221 82.1004 216.1 84.6004 210.3C85.2004 209 85.1004 207.4 85.2004 205.9C85.4004 203.3 86.0004 200.9 88.4004 199.5C89.5004 198.9 89.9004 198 90.3004 196.8C94.1004 186.6 99.6004 177 101.6 166.1C102.3 162.4 102.1 162.1 98.8004 162.1C81.8004 162.1 64.8004 162.2 47.8004 161.7C42.9004 161.6 40.9004 163.4 40.0004 167.7C33.9004 194.4 39.3004 218.1 58.4004 238.1C60.8004 240.6 61.5004 242.2 59.3004 245.1C57.4004 247.7 56.5004 251 57.4004 254C58.2004 256.9 56.6004 257.5 54.7004 258.3C35.3004 266 29.0004 286.4 40.7004 303.7C42.1004 305.7 42.4004 307 40.1004 308.5C37.0004 310.5 34.4004 313.2 32.9004 316.6C31.6004 319.3 30.2004 319.3 27.8004 318.2C22.8004 315.9 17.6004 314.4 12.1004 313.6C8.10039 313 6.80039 314.1 6.80039 318.5C7.00039 351.7 6.90039 385 6.90039 418.4ZM213.8 115.2C211.8 111.3 212.4 109.2 216.8 109.3C217.8 109.3 218.6 108.8 219.4 108.1C224.1 103.3 233.1 102.9 238.5 106.7C241.5 108.8 243.7 112.5 248.2 112.1C263.8 110.6 279.3 109.2 294.9 107.8C297.3 107.6 298.4 106.6 298.3 104C298.1 98.4999 298.2 92.9999 298.3 87.4999C298.3 84.6999 297.1 83.8999 294.4 83.5999C280.2 81.8999 267 84.5999 255 92.2999C253 93.5999 251.7 93.7999 250.1 91.5999C243.7 83.0999 235 79.3999 224.5 79.7999C221.8 79.8999 220.9 79.0999 220.2 76.3999C213.6 50.4999 189.3 30.2999 159.1 33.4999C137.6 35.6999 122.2 46.8999 113.1 65.9999C110 72.5999 107.7 77.7999 99.2004 75.6999C98.6004 75.5999 97.9004 75.8999 97.3004 76.0999C77.0004 81.0999 67.8004 100.2 76.8004 119.4C77.7004 121.4 77.5004 122.1 75.7004 123.2C73.3004 124.7 70.2004 125.3 68.8004 128.4C69.4004 128.6 69.7004 128.8 70.0004 128.7C90.9004 126.8 111.8 125 132.7 123C133.7 122.9 136.2 123.4 135.6 121.5C135 119.4 136.5 116 133.7 115.5C130.5 114.9 131.3 113.6 131.7 111.5C132.1 109.1 133.5 107.3 134.4 105.2C139.3 93.6999 147.5 87.0999 160.7 87.8999C165.7 88.1999 171.7 86.3999 175.4 88.5999C179.4 90.9999 179.6 97.5999 181.1 102.5C182.2 105.8 183.9 107.9 187.1 109.2C190 110.4 193.1 111.6 196.5 114.4C191.3 114.6 187.2 114.8 183.1 115C181.9 115.1 180.1 114.6 180.1 116.6C180 119.2 182.1 118.4 183.4 118.3C193.2 117.1 203.3 116.2 213.8 115.2ZM161.6 553.2C161.5 541.9 161.3 530.6 161.6 519.3C161.7 515.2 160.8 514.5 156.9 515.6C139.4 520.5 121.9 525.1 104.4 529.8C73.2004 538.2 42.1004 546.6 10.9004 554.8C7.70039 555.6 6.70039 557 6.80039 560.2C7.00039 567.9 6.90039 575.5 6.90039 583.2C6.90039 592.6 6.90039 592.5 16.5004 591.9C18.9004 591.8 19.7004 591 19.6004 588.6C19.5004 584 19.6004 579.3 19.5004 574.7C19.4004 572.4 20.0004 571.2 22.6004 570.7C38.2004 567.3 53.8004 563.8 69.3004 560.2C72.1004 559.6 72.4004 560.8 72.3004 563C72.2004 565.7 70.1004 565.6 68.4004 566C59.3004 568 50.2004 570 41.1004 572C28.7004 574.7 28.9004 574.7 29.0004 587.4C29.0004 591 30.5004 591.5 33.4004 591.5C50.7004 591.6 68.0004 591.6 85.3004 592C89.4004 592.1 90.3004 590.6 90.2004 586.9C90.0004 577.9 90.3004 568.9 90.0004 559.9C89.9004 556.3 90.9004 554.7 94.6004 554C109.3 551 123.8 547.5 138.5 544.4C139.9 544.1 142.5 541.9 143.2 545.6C143.7 548.5 141.9 549.1 139.5 549.6C127.6 552.1 115.8 554.9 103.9 557.4C101 558 99.8004 559.2 99.9004 562.3C100.1 570.6 100.1 578.9 99.9004 587.3C99.8004 590.6 100.9 591.7 104.1 591.7C121.9 591.7 139.7 591.8 157.5 592.1C160.7 592.1 161.4 591 161.4 588.1C161.5 576.4 161.6 564.8 161.6 553.2ZM260.9 155.5C260.9 155.3 260.9 155.1 260.9 154.9C287.5 154.9 314.2 154.8 340.8 155C345.3 155 346 153.5 345.9 149.6C345.7 139.3 345.5 129 345.9 118.6C346.1 113.8 344.5 112.7 340 113.1C309.7 115.7 279.3 118.3 249 120.6C239.9 121.3 230.8 123.8 221.8 123.7C211.1 123.6 200.6 125.2 190 125.5C187.8 125.6 184.3 125.2 186.9 129.4C187.4 130.2 187.1 131.3 186.2 131.5C180.2 132.7 181.7 137.3 182.1 140.9C182.7 146 181.2 148 176 147C173.6 146.6 172.6 147.2 173.8 150C175.4 153.7 177.4 155.6 181.9 155.5C208.3 155.3 234.6 155.5 260.9 155.5ZM161.6 495C161.6 493 161.6 491 161.6 489C161.6 483.2 161.6 483.2 156 484.9C110 499.2 64.0004 513.5 18.0004 527.8C6.80039 531.3 6.90039 531.3 6.90039 543C6.90039 546.8 7.70039 547.3 11.4004 546.3C58.0004 533.6 104.7 521.1 151.4 508.6C161.7 505.8 161.7 505.8 161.6 495ZM166.9 423.2C166.3 405.8 168.3 385 164.9 364.3C163.5 355.9 162.8 347.5 161.8 339.1C161.6 337.5 161.1 335.9 159.5 335.6C157.5 335.2 157.6 337.2 157.4 338.3C155 356.1 152.2 373.8 150.3 391.6C147.3 420.7 144.9 449.8 142 478.9C141.6 482.5 142.6 482.6 145.3 481.7C151 479.9 156.6 477.4 162.5 476.7C166.7 476.2 167 474.8 166.9 471.4C166.8 456.5 166.9 441.5 166.9 423.2ZM79.3004 155.8C87.0004 155.9 94.6004 155.9 102.3 155.9C111.3 155.9 120.3 156.4 129.1 154.2C134.1 152.9 139.5 152.2 141.4 145.9C142 143.9 142.2 143.5 140.2 142.8C135.7 141.2 134.2 137.4 135.2 133.2C136 130 134.5 130.3 132.6 130.2C131.3 130.2 129.9 130.2 128.6 130.3C100.8 132.6 72.9004 134.9 45.1004 137.2C36.8004 137.9 36.8004 137.7 37.0004 145.7C37.1004 147.7 37.2004 149.7 37.0004 151.7C36.7004 155.1 38.1004 155.9 41.3004 155.8C54.0004 155.7 66.7004 155.8 79.3004 155.8ZM120.9 224.7C117.6 229.3 117.3 234.7 112.8 237.5C112.1 237.9 112 239.6 111.9 240.7C110.3 256 108.5 271.4 107.3 286.8C106.9 291.4 105.2 297.3 111.8 299.9C113.1 300.4 112.8 301.9 113.2 302.9C114.2 305.1 116.5 305.4 118.3 305.3C120.2 305.1 119.5 302.8 119.5 301.5C119.8 296.9 120 292.2 119.8 287.6C119.5 277.2 120.6 267.1 124.3 257.3C124.8 256.1 125.2 254.7 125 253.4C123.8 244.2 122.4 234.9 120.9 224.7ZM103 221.4C102.3 220.1 101.6 218.9 101.1 217.6C100.5 215.9 100.3 214.4 102.6 213.7C103.9 213.3 106.1 213.9 106 211.7C106 210.1 104.1 209.6 102.7 209C101.7 208.5 100.6 208.1 99.5004 207.5C98.2004 206.8 96.6004 206 96.8004 204.3C97.1004 202 99.2004 203.3 100.4 202.9C102 202.5 104.7 203.8 104.7 201C104.7 194.6 107.4 188.9 108.3 182.8C109.7 173.3 115 167.6 123.9 164.7C127.7 163.5 131.4 162.1 135.2 160.7C137.7 159.8 140.4 159.6 142.4 157.4C140.6 156.1 138.7 154.3 136.6 155.1C128 158.4 118.7 158.7 110 161.5C106.1 162.8 103.6 165.1 102.8 169C100.3 181.4 95.9004 193 88.2004 203.2C87.7004 203.8 87.7004 204.8 87.6004 205.6C87.2004 208.6 86.9004 211.5 85.9004 214.3C84.7004 217.6 86.6004 219.6 90.0004 219C94.8004 218.3 99.1004 218.2 103 221.4ZM122.3 625.8C124.3 633.1 126.1 639.3 127.7 645.6C128.3 647.9 129.1 649 131.6 649.1C134.3 649.2 134.9 647.6 135.5 645.6C137.4 639.4 139.4 633.2 141.7 625.7C142.1 633.2 142.6 639.3 142.7 645.5C142.7 648.5 143.6 649.4 146.6 649.5C150.4 649.6 150.1 647.5 150 645.1C149.6 637.3 149.2 629.5 148.6 621.7C148.5 619.9 149.6 616.8 146 616.9C142.7 617 138.5 615 137.2 620.6C135.9 626.1 134 631.4 132.1 638C130.2 631 128.7 625.2 127 619.5C125.5 614.6 121.4 617.3 118.5 616.9C115.7 616.5 116.1 619 116 620.8C115.5 629.1 115 637.4 114.4 645.7C114.2 648 114.3 649.5 117.3 649.4C119.8 649.3 121.4 649.2 121.4 646C121.4 639.6 121.9 633.4 122.3 625.8ZM191.9 637.8C190 631 188.4 625.4 186.8 619.7C185.4 614.7 181.4 617.2 178.5 616.8C175.2 616.3 175.9 619.1 175.8 620.9C175.2 629 174.6 637.2 174.1 645.3C174 647.2 173.4 649.4 176.8 649.3C179.5 649.2 181.2 649.1 181.2 645.6C181.2 639.5 181.8 633.5 182.1 627.4C184.2 633.3 185.8 639.3 187.4 645.2C187.9 647.1 188.2 648.9 191.1 649C194 649.1 194.7 647.5 195.4 645.2C197.2 639.1 199.2 633.1 201.1 627C201.6 627.1 202 627.1 202.5 627.2C202.5 633.5 202.7 639.8 202.4 646.2C202.3 649.9 204.6 649.1 206.7 649.3C209.4 649.6 210 648.4 209.8 645.8C209.2 637.7 208.9 629.5 208.3 621.4C208.2 619.5 209.3 616.5 205.6 616.8C202.5 617 198.5 615 197.1 620.3C195.7 625.8 193.8 631.3 191.9 637.8ZM7.50039 553.8C8.30039 553.6 9.00039 553.4 9.80039 553.2C36.6004 546 63.4004 538.8 90.2004 531.6C112.8 525.5 135.5 519.4 158.1 513.3C160.2 512.7 162.2 512.3 161.5 509.5C160.6 506.1 158.4 508.6 157.2 508.9C147.2 511.4 137.3 514.1 127.3 516.8C88.6004 527.2 49.9004 537.6 11.3004 548C8.40039 549 5.50039 549.6 7.50039 553.8ZM113.2 306.2C110.6 306.5 110.1 308.8 109.5 310.8C108.7 313.6 109.6 315.4 112.6 316.5C128.6 322 144.6 327.6 160.5 333.4C164.5 334.9 167.6 336 167.2 329.8C167.1 328.8 167.9 327.5 168.6 326.7C170.7 324.4 170.2 323.3 167.3 322.5C149.9 317.4 132.6 312.1 115.3 306.9C114.6 306.6 114 306.4 113.2 306.2ZM146.1 109.1C148.1 107.6 150.9 107 151.4 108.8C153.1 115.4 157.9 112 161.5 112.4C163.9 112.7 165 111 164.8 108.6C164.5 104.3 163.8 99.9999 162.5 95.8999C160.7 90.1999 158.2 88.9999 152.3 90.4999C144.4 92.4999 135.7 102.4 134.5 110.5C134.3 112.2 135 112.6 136.4 112.6C140.4 112.6 144.4 112.6 148.4 112.6C149 112.6 149.8 112.8 150 111.9C150.2 111 149.7 110.3 148.9 109.9C147.9 109.7 147 109.4 146.1 109.1ZM89.1004 628.9C89.2004 628.9 89.2004 628.9 89.3004 628.9C89.3004 626.1 89.2004 623.2 89.3004 620.4C89.5004 617.7 88.6004 616.6 85.7004 616.6C82.5004 616.5 81.7004 617.8 81.8004 620.7C82.0004 626 82.0004 631.3 81.8004 636.6C81.7004 640.3 80.5004 643.8 76.0004 643.8C71.7004 643.8 70.9004 640.2 70.3004 636.9C70.1004 635.4 70.2004 633.9 70.2004 632.4C70.2004 628.1 70.1004 623.8 70.2004 619.4C70.3004 616.6 68.6004 616.5 66.6004 616.7C64.9004 616.8 62.8004 616.1 62.8004 619.2C62.9004 625.7 62.5004 632.2 63.1004 638.6C63.8004 646.2 68.9004 650.2 76.3004 649.9C83.7004 649.6 88.3004 645.3 89.0004 637.9C89.3004 634.9 89.1004 631.9 89.1004 628.9ZM30.2004 616.1C22.9004 616.2 18.3004 619.2 17.2004 623.9C15.9004 628.9 18.8004 632.8 25.5004 635.8C27.9004 636.9 32.0004 637.2 30.8004 641C29.6004 644.9 25.8004 643.9 22.7004 643.3C22.2004 643.2 21.7004 643.2 21.2004 643C19.3004 642.2 17.9004 641.8 17.2004 644.6C16.7004 646.9 16.8004 648.5 19.4004 649.1C22.5004 649.8 25.6004 650.4 28.8004 649.8C34.6004 648.6 37.8004 645.8 38.3004 641.1C38.9004 636.2 36.7004 633.3 31.2004 630.4C28.7004 629.1 23.6004 629.2 24.7004 625.1C25.8004 621.1 30.1004 622.3 33.3004 623.2C35.8004 623.9 36.0004 622.2 36.6004 620.7C37.3004 618.7 36.8004 617.5 34.6004 617.1C32.9004 616.7 31.1004 616.2 30.2004 616.1ZM199.2 159.1C202.9 160.4 205.4 161 208.1 161.1C222.9 161.3 237.7 161.6 252.6 161.8C275.4 162.1 298.2 161.6 321 162.6C323.7 162.7 326.3 162.6 329 162.5C330.2 162.4 332 162.7 331.9 160.7C331.8 158.7 330 159.4 328.7 159.2C327.9 159.1 327 159.2 326.2 159.2C304.7 159.2 283.2 159.2 261.7 159.2C241.3 159.1 220.8 159.1 199.2 159.1ZM273.9 635.8C273.9 639.3 274.1 642.8 273.9 646.3C273.7 649.4 275.5 649.3 277.6 649.4C279.9 649.5 281.3 649 281.3 646.2C281.1 640.7 281.5 635.2 281.2 629.7C280.9 624.9 281.7 621.9 287.4 623C289.7 623.4 290.1 621.8 290.1 619.9C290.1 618 289.8 616.7 287.5 616.8C280.8 616.9 274.2 616.9 267.5 616.8C265.5 616.8 265 617.8 265 619.7C265.1 621.5 265.2 623.4 267.5 623C274.3 621.7 274.3 625.7 273.8 630.4C273.8 632.1 273.9 633.9 273.9 635.8ZM95.1004 223.8C93.3004 223.6 92.6004 224.9 92.2004 226.4C91.3004 229.8 90.8004 233.2 91.0004 236.8C91.4004 245.4 91.8004 254.1 92.2004 262.7C92.5004 269.7 92.9004 276.6 93.5004 283.6C93.6004 284.7 93.2004 287 95.7004 286.6C97.8004 286.3 98.4004 284.9 98.1004 283C98.0004 282.3 98.0004 281.6 97.8004 281C94.0004 272.7 95.3004 264 96.5004 255.5C97.6004 247.5 98.3004 239.4 101.4 231.8C102 230 97.1004 223.9 95.1004 223.8ZM89.6004 300.5C89.8004 298.6 88.2004 298.7 87.3004 298.5C75.9004 295 64.5004 291.6 53.1004 288.1C50.5004 287.3 49.0004 287.9 48.2004 290.5C47.4004 293.1 48.7004 294 50.9004 294.8C61.4004 298.4 71.9004 302.1 82.4004 305.8C87.9004 307.7 89.9004 306.2 89.6004 300.5ZM236.9 117.7C237.1 117.7 237.2 117.7 237.4 117.7C267.8 115.1 298.3 112.5 328.7 109.9C330 109.8 332.1 110.5 331.7 107.9C331.3 105.4 329.4 106.7 328.2 106.8C311.7 108.2 295.1 109.6 278.6 111.1C264.9 112.4 251.2 113.7 237.5 115.1C236.4 115.2 234.9 115 234.8 116.5C234.5 118.1 236 117.6 236.9 117.7ZM162.3 152.5C160 144.6 158 137.8 156.2 131C155.7 129 154.8 128.9 153 129.4C148.3 130.8 145.5 134.6 144.8 140.8C144.3 144.7 145.1 147.3 149.6 148.3C153.5 149.2 157.3 150.9 162.3 152.5ZM159.5 674.7C160.3 678.5 160.8 681 161.2 683.4C161.5 685 162.1 686.1 164.1 686.1C165.7 686 166.5 685.3 166.8 683.8C167.9 679.6 169 675.4 170 671.2C170.3 670.2 170.8 668.7 169 668.5C167.6 668.3 166.4 668.8 166.1 670.5C165.6 673.1 165.1 675.7 164.5 678.7C162.7 676 163.1 673.3 162.4 671C161.9 669.3 161.4 668.4 159.5 668.5C157.7 668.6 157.3 669.5 157 670.9C156.6 673.3 156 675.6 155.5 677.9C154 675.4 153.5 672.9 153 670.4C152.7 668.6 151.5 668.3 150.1 668.5C148.4 668.8 148.7 670.1 149 671.2C150 675.4 151 679.6 151.9 683.8C152.2 685.4 153.1 685.9 154.7 686C156.7 686.1 157.2 685 157.6 683.4C158 681.1 158.6 678.7 159.5 674.7ZM234.7 632.7C234.7 637.2 234.8 641.7 234.7 646.1C234.6 649 236.2 649.2 238.4 649.2C240.7 649.2 242.2 649 242.1 646.1C242 637.3 242 628.5 242.1 619.7C242.2 616.8 240.6 616.6 238.4 616.6C236.2 616.6 234.5 616.8 234.7 619.7C234.9 624.1 234.7 628.4 234.7 632.7ZM91.1004 307.8C91.5004 309.5 89.8004 312.2 93.2004 312.9C95.8004 313.4 98.4004 313.6 101 314.1C104.2 314.6 105 313 105 310.1C105 308.2 104.5 306.2 105.5 304.2C107.3 300.8 105.5 297.6 101.8 297.3C94.8004 296.8 91.3004 300.2 91.1004 307.8ZM144 148.4C142.6 148.1 142.2 148.9 141.9 150C141.6 151.3 140.1 152.8 141.9 154C147.2 157.7 152.6 161.3 157.9 165C159.6 166.2 160.4 164.8 161 163.7C162.5 161.1 165.5 159.3 165.5 155.9C165.5 155.7 165 155.5 164.7 155.4C157.8 153.1 150.9 150.8 144 148.4ZM348.8 134C348.8 131.8 348.8 129.7 348.8 127.5C348.8 125.2 348.8 122.9 348.8 120.5C348.9 110.8 348.9 110.8 358.3 110.3C359.2 110.2 360.5 110.5 360.6 109.2C360.7 107.9 359.6 107.6 358.6 107.6C351.3 107.2 344 106.8 336.7 106.3C335.5 106.2 334.7 106.6 334.7 107.9C334.7 109 335.2 109.7 336.5 109.7C338.8 109.7 341.2 110.1 343.5 109.8C347.3 109.4 348.3 111 348.2 114.6C348 125.4 348.2 136.2 348.1 147C348.1 156.7 348.1 156.7 338.8 158.4C338.5 158.5 338.1 158.5 337.8 158.6C336.8 159 335.1 158.5 335.2 160.2C335.3 162.2 337 161.7 338.3 161.6C343.4 161 348.5 160.5 353.6 159.6C355.9 159.2 360.4 160 360.1 157.3C359.8 154.6 355.9 156.7 353.7 157C349.8 157.5 348.4 156.4 348.6 152.3C349 146.3 348.8 140.2 348.8 134ZM131.9 239.7C126.1 235.5 128 228.3 124.7 222.7C123.7 225.2 124.3 227 124.4 228.8C124.8 236.2 128.2 242.9 129.3 250.1C129.6 252.2 129.6 254.1 132.4 254.2C135.4 254.3 136 252.2 136 249.9C136.1 244.9 136.2 239.9 136.1 235C136.1 232.4 135.1 230.2 131.9 229.2C131.9 232.8 131.9 236.3 131.9 239.7ZM184.8 677.5C184.9 682.9 188.4 686.4 193.5 686.2C198.5 686 202.1 682.1 201.9 677C201.8 672.1 198 668.1 193.5 668.1C188.5 668.1 184.7 672.2 184.8 677.5ZM217.4 677.3C217.5 679.6 217.4 681.9 217.5 684.2C217.5 685.8 218.6 686 219.9 686C221.2 685.9 221.7 685.4 221.6 684.1C221.5 683.3 221.7 682.4 221.7 681.6C221.8 680.7 221.3 679.4 222.7 679.2C224.1 679 224.8 679.9 225.1 681.2C225.3 682.2 225.7 683.1 225.9 684.1C226.2 685.8 227.4 686.2 228.8 686C231.1 685.7 230.1 684 229.8 683C229.2 680 227.2 677.3 229.8 674.1C231 672.5 229.5 670.2 227.5 669.2C224.7 667.8 221.6 667.4 218.8 668.6C216.1 669.8 217.8 672.8 217.4 674.9C217.3 675.7 217.4 676.5 217.4 677.3ZM250.2 674.3C250.1 673.3 250 672.5 249.9 671.8C249.8 670.3 250.2 668.7 247.9 668.6C245.1 668.5 245.7 670.6 245.7 672C245.6 676 245.7 680 245.7 684C245.7 685.4 246.2 686.1 247.8 686.1C249.2 686.1 249.8 685.5 249.9 684C250 682.5 249.2 680.6 251 679.5C256.4 686 256.4 686 260.2 685.4C255.7 680.1 251.8 674.7 259.5 669.1C253.6 666.8 253.3 672.4 250.2 674.3ZM71.0004 677.1C71.0004 686.6 71.0004 686.6 79.3004 686.1C80.5004 686 82.4004 686.6 82.4004 684.7C82.5004 682.4 80.5004 683 79.1004 682.8C77.6004 682.6 75.4004 683.6 75.3004 680.9C75.2004 677.8 77.7004 679 79.3004 678.7C80.4004 678.5 81.8004 678.9 81.8004 677.1C81.9004 675.1 80.5004 675.1 79.1004 675.1C78.4004 675.1 77.8004 675.1 77.1004 675.1C76.3004 675 75.4004 674.9 75.3004 673.8C75.1004 672.4 76.0004 672.1 77.1004 672.1C77.9004 672.1 78.8004 672.1 79.6004 672C80.8004 672 82.0004 671.9 81.9004 670.2C81.8004 668.6 80.7004 668.6 79.5004 668.4C71.4004 667.4 71.0004 667.8 71.0004 676.1C71.0004 676.4 71.0004 676.7 71.0004 677.1ZM98.1004 677C98.1004 678.3 98.3004 679.7 98.1004 681C97.3004 685.3 99.3004 686.7 103.3 686.2C104.1 686.1 105 686.2 105.8 686.1C107.2 685.9 109.3 686.9 109.5 684.8C109.7 682.1 107.3 683 105.8 682.8C104.4 682.6 102.6 683.3 102.4 681C102.2 678.3 104.3 678.9 105.8 678.7C107 678.6 108.8 679.1 108.9 677.1C109.1 674.7 107.2 675.2 105.8 675.1C105.3 675.1 104.8 675.1 104.3 675C103.5 674.9 102.6 674.8 102.5 673.7C102.3 672.3 103.2 672 104.3 672C105.1 672 106 671.9 106.8 671.9C108 671.9 109.2 671.8 109.2 670.1C109.2 668.4 108 668.5 106.8 668.4C98.7004 667.3 98.2004 667.7 98.2004 675.9C98.1004 676.3 98.1004 676.6 98.1004 677ZM278.6 686.3C282.2 686.1 285.1 685.4 285.9 681.8C286.6 678.6 284.5 677 282 675.7C280.8 675.1 278.5 675 278.7 673.3C279 670.9 281.2 671.9 282.8 672C283.9 672.1 284.8 671.9 285 670.6C285.2 669.9 285 669.4 284.4 668.9C282.3 667.3 277 668.2 275.3 670.7C273.1 674 274.5 676.2 277.4 678.1C279 679.1 282.2 679.1 281.6 681.5C281 683.9 278.3 683 276.4 682.5C275 682.1 274.6 683 274.3 684C274.1 685 274.7 685.6 275.6 685.8C276.7 686.1 277.9 686.2 278.6 686.3ZM19.9004 682.8C19.2004 683.5 17.2004 680.7 16.8004 683.7C16.5004 686.3 18.7004 686 20.2004 686.1C23.5004 686.3 26.8004 685.9 27.9004 682.1C29.0004 678.4 26.5004 676.7 23.5004 675.4C22.4004 674.9 20.6004 674.7 21.0004 672.9C21.4004 671.1 23.1004 671.8 24.3004 671.8C25.5004 671.8 26.7004 672.3 27.0004 670.5C27.3004 668.5 25.7004 668.3 24.5004 668.2C21.2004 667.8 18.0004 668.4 16.7004 672C15.5004 675.4 17.9004 677.2 20.6004 678.5C22.0004 679.2 24.3004 679.2 23.6004 681.6C23.3004 683.3 21.6004 682.9 19.9004 682.8ZM47.1004 678.4C47.1004 680.4 47.1004 682.1 47.1004 683.7C47.1004 685.4 47.9004 686.1 49.6004 686C51.3004 685.9 51.3004 684.7 51.3004 683.5C51.3004 681.3 51.3004 679.2 51.3004 677C51.3004 674.5 50.4004 671.3 54.9004 671.7C56.0004 671.8 56.1004 670.7 56.1004 669.9C56.1004 668.9 55.6004 668.3 54.6004 668.3C51.1004 668.3 47.6004 668.3 44.1004 668.3C43.1004 668.3 42.7004 669 42.6004 669.9C42.5004 670.6 42.7004 671.5 43.4004 671.5C49.1004 671.6 46.4004 676.1 47.1004 678.4ZM171.6 131.7C171.7 128.2 170.3 126.9 167.1 126.7C164.4 126.5 163.1 127.7 163 130.4C162.8 134.8 166.8 142 169.2 141C173.8 139 169.7 134.1 171.6 131.7ZM169.3 268.4C173.1 269.2 173.9 267.1 174 264.5C174.3 259.1 170 260.5 167.1 260C163.4 259.3 161.8 261.2 161.9 264.6C162.1 270.7 167.4 266.8 169.3 268.4ZM125.1 677.1C125 686.4 125 686.4 132.8 686C134.1 685.9 136.1 686.7 136.1 684.2C136 682.2 134.2 682.6 133.1 682.7C129.9 683 129.1 681.5 129.3 678.6C129.5 676 129.3 673.3 129.3 670.6C129.3 669.3 128.9 668.3 127.3 668.4C125.9 668.4 125.2 669.2 125.2 670.6C125.1 672.8 125.1 675 125.1 677.1ZM164.1 115.1C153.7 114.1 146.6 121.1 138.1 124.8C137.2 125.2 136.9 126 137.5 126.8C138.1 127.6 139 127.4 139.8 127.1C147.8 123.1 155.9 119.1 164.1 115.1ZM215.4 119.3C215.3 118.6 215.3 118 215.2 117.3C204.3 118.3 193.4 119.4 182.5 120.4C182.6 120.9 182.6 121.5 182.7 122C193.6 121.2 204.5 120.2 215.4 119.3ZM96.4004 296C98.6004 295.6 100.1 294.5 100 292.1C100 289.5 98.4004 288.1 96.0004 288.2C93.8004 288.3 92.3004 289.7 92.3004 292C92.3004 294.4 93.8004 295.8 96.4004 296ZM61.3004 159.3C61.2004 159.4 61.1004 159.6 61.1004 159.7C75.8004 159.7 90.4004 159.7 105.1 159.7C105.1 159.6 105.1 159.4 105.1 159.3C90.5004 159.3 75.9004 159.3 61.3004 159.3ZM134.5 126.1C134.5 125.7 134.4 125.3 134.4 125C125.6 125.8 116.7 126.6 107.9 127.5C107.9 127.8 107.9 128.1 108 128.3C116.8 127.5 125.6 126.8 134.5 126.1ZM228.5 164.4C230.2 165.2 231.3 165.7 232.4 166.2C233.8 166.9 234.5 168.2 235.3 169.4C235.6 169.8 236.5 170.1 237 170C237.7 169.9 237.6 169.1 237.7 168.4C238.1 163.8 236.7 163 228.5 164.4ZM173.5 336.4C178.6 333.8 179.5 330.9 176.8 326.5C176.4 330.3 175.3 333.5 173.5 336.4Z" fill="black"/>
<path d="M197.4 677.1C197 679.6 196.9 682.7 193.4 682.8C190 682.9 189.1 680.1 189.1 677.3C189.1 674.5 189.8 671.8 193.3 671.8C196.7 671.8 197 674.5 197.4 677.1Z" fill="black"/>
<path d="M223.4 675.9C222.1 676.1 221.5 675.5 221.7 674.2C221.9 673 221.2 671.3 223.4 671.4C224.6 671.5 225.7 672 225.8 673.4C226 675.1 224.8 675.6 223.4 675.9Z" fill="black"/>
<rect x="17" y="610" width="281" height="94" fill="black"/>
</g>
<defs>
<clipPath id="clip0_946_989">
<rect width="367" height="704" fill="white"/>
</clipPath>
</defs>
</svg>
