<svg width="256" height="256" viewBox="0 0 256 256" fill="none" xmlns="http://www.w3.org/2000/svg">
<path d="M125.327 19.7974C125.906 14.6598 125.024 9.53109 125.483 4.54383C125.58 3.48043 125.979 2.42071 126.977 1.70767C129.814 -0.318242 136.293 0.632959 139.763 0.876292C145.691 0.984341 151.618 0.981781 157.545 0.868612C162.809 1.03167 173.87 0.52978 177.574 3.91667C179.601 5.76982 179.719 8.57109 179.543 10.9389C179.297 14.2138 178.753 17.4927 178.296 20.7512C186.121 24.1018 194.887 24.9323 203.042 27.655C209.74 29.952 216.175 32.6803 222.347 35.8397C229.572 39.5458 251.369 52.7227 253.873 59.0874C254.21 59.9471 254.095 60.3639 253.807 61.2009C253.285 61.4576 252.725 61.7978 252.135 61.9236C243.774 62.9601 238.509 56.8183 232.28 53.1551L226.477 48.9888L223.947 47.4719C220.826 45.5663 217.455 43.8149 214.092 42.2205C209.969 40.1524 205.637 38.0552 201.133 36.6253C194.908 33.1609 176.578 30.7104 168.578 29.0296C167.254 24.3495 167.917 20.1947 167.812 15.5043C167.779 14.0671 167.539 12.5643 166.196 11.5408C163.468 9.46106 157.456 10.2679 154.035 10.3872C149.116 10.5058 144.206 10.7539 139.305 11.1314C139.112 17.0253 139.505 22.9395 139.236 28.8198C138.012 29.6733 136.92 29.9817 135.416 30.3078C126.865 31.6129 118.375 33.2146 110.201 35.7197C81.2286 45.4539 56.5907 64.7013 44.2698 88.7988C41.437 94.3389 39.5901 100.11 38.0714 105.987C37.3977 108.594 37.189 111.781 35.9565 114.226C35.3368 115.454 34.271 116.565 32.7461 117.053C31.0906 117.582 29.2663 117.237 27.622 117.63L26.0103 118.509C22.76 118.418 19.721 118.73 16.5184 119.116C15.6158 125.625 16.9507 131.891 16.7204 138.375C23.0734 138.25 29.5156 137.978 35.7099 139.367C40.8687 143.526 41.2409 150.637 42.687 156.297C45.9229 168.955 53.2547 179.262 62.5226 189.516C65.8377 193.183 69.325 196.958 73.2988 200.152C82.2238 207.324 93.5834 213.736 104.798 218.116C113.386 221.471 123.019 222.701 131.049 225.789C133.889 226.46 139.142 227.125 140.887 229.229C142.441 233.01 138.169 244.302 142.972 246.289C144.725 247.015 157.325 246.962 159.869 246.771C161.182 246.613 162.359 246.494 163.517 245.905C165.008 243.791 164.247 232.064 164.559 228.768C167.23 228.166 169.981 227.847 172.72 227.557C174.35 226.764 177.627 226.576 179.544 226.252C181.748 226.266 184.119 225.752 186.278 225.396C201.177 222.939 215.743 216.248 227.686 208.512C233.242 204.913 238.345 200.355 244.641 197.663C248.126 196.172 250.799 195.816 254.685 195.853L254.787 198.291C254.376 199.784 253.721 200.923 252.564 202.112C247.594 207.23 230.148 218.287 222.904 222.07C214.459 226.479 205.61 230.404 196.288 233.357C194.835 234.147 189.857 235.461 188.155 235.308C186.39 235.978 184.62 236.637 182.844 237.284C182.75 241.353 183.85 251.932 181.878 255.064C181.149 255.622 180.619 255.773 179.678 255.956L178.85 255.467C169.062 255.695 159.332 255.741 149.538 255.682C143.366 255.645 136.599 256.02 130.601 254.76C129.793 254.133 129.811 252.66 129.689 251.767C130.439 248.187 130.576 241.587 129.106 238.217C128.588 237.031 127.295 236.648 126.013 236.151L124.629 237.631C121.042 236.892 117.482 236.048 113.921 235.229C104.544 233.311 93.8607 229.251 85.9583 224.681C82.8796 223.588 79.8 221.768 76.9769 220.26C55.094 208.562 36.8172 189.085 28.1254 168.707C26.579 165.082 25.1191 161.372 24.1784 157.603C23.7455 155.868 23.4348 152.258 22.2879 150.891C21.7565 150.259 19.9595 150.279 19.0845 150.21C12.7229 150.048 6.31695 149.925 0 149.223V108.677V108.058C5.63964 107.74 12.2625 107.878 17.6772 106.581C19.3375 106.184 20.6295 105.656 21.5324 104.379C24.4905 100.195 26.0476 92.9272 28.0813 88.1084C30.5784 82.1913 34.1416 76.4363 37.7566 70.9474C43.204 62.6767 50.2908 55.8466 58.5115 49.4077C79.8227 32.7153 97.5612 26.5179 125.327 19.7974Z" fill="#F72403"/>
</svg>
